<svg width="50" height="50" viewBox="0 0 50 50" fill="none" xmlns="http://www.w3.org/2000/svg">
<path d="M24.3193 1.06104L2.74052 11.4782C2.47001 11.6088 2.29803 11.8828 2.29803 12.1832V37.8165C2.29803 38.1169 2.47001 38.3908 2.74052 38.5215L24.3193 48.939C24.7494 49.1466 25.2506 49.1466 25.6807 48.939L47.2595 38.5216C47.53 38.391 47.7019 38.117 47.7019 37.8166V12.1833C47.7019 11.8829 47.53 11.609 47.2595 11.4783L25.6807 1.06104C25.2506 0.853423 24.7494 0.853423 24.3193 1.06104Z" fill="#FFE17D"/>
<path d="M2.42821 11.7547C2.34589 11.88 2.29803 12.0274 2.29803 12.1832V37.8165C2.29803 38.117 2.47001 38.3908 2.74052 38.5215L24.3193 48.939C24.5344 49.0428 24.7672 49.0947 25 49.0947V22.6515L2.42821 11.7547Z" fill="#FFC350"/>
<path d="M47.5718 11.7547C47.6541 11.88 47.702 12.0274 47.702 12.1832V37.8165C47.702 38.117 47.53 38.3908 47.2595 38.5215L25.6807 48.939C25.4656 49.0428 25.2328 49.0947 25 49.0947V22.6515L47.5718 11.7547Z" fill="#FFD164"/>
<path d="M39.9225 15.4348L17.2715 4.49219L11.3006 7.38633L34.0024 18.346L39.9225 15.4348Z" fill="#FF8087"/>
<path d="M34.0024 18.346V26.8362C34.0024 27.1248 34.3041 27.3142 34.5641 27.1887L39.4801 24.8154C39.7507 24.6849 39.9226 24.4108 39.9226 24.1105V15.4348L34.0024 18.346Z" fill="#E6646E"/>
<path d="M48.0204 11.0322L25.3185 0.0728561C25.1172 -0.0242142 24.8828 -0.0242142 24.6817 0.0728561L1.97961 11.0322C1.72648 11.1544 1.56564 11.4107 1.56564 11.6918V38.3079C1.56564 38.589 1.72648 38.8453 1.97961 38.9675L24.6816 49.9271C24.7821 49.9756 24.8911 49.9999 25 49.9999C25.1089 49.9999 25.2178 49.9756 25.3185 49.9271L48.0204 38.9675C48.2736 38.8453 48.4344 38.589 48.4344 38.3079V11.6919C48.4344 11.4107 48.2735 11.1545 48.0204 11.0322ZM25 1.54571L46.0173 11.6919L39.9248 14.6331C39.8862 14.6037 39.8455 14.5766 39.8008 14.555L18.9263 4.47784L25 1.54571ZM17.2722 5.30596L38.2589 15.4374L33.9606 17.5125L12.9825 7.38506L17.2722 5.30596ZM34.735 18.7652L38.7499 16.827V24.4975L34.735 26.4357V18.7652ZM25.7324 48.1007V23.1111L30.7982 20.6656C31.1624 20.4897 31.3152 20.052 31.1393 19.6876C30.9634 19.3234 30.5256 19.1705 30.1612 19.3465L25 21.8382L22.9692 20.8577C22.6048 20.6816 22.167 20.8346 21.9911 21.1988C21.8153 21.5631 21.968 22.001 22.3322 22.1769L24.2676 23.1111V48.1006L3.03049 37.8482V12.8587L19.2024 20.6658C19.305 20.7154 19.4135 20.7389 19.5202 20.7389C19.7925 20.7389 20.054 20.5863 20.1803 20.3247C20.3562 19.9605 20.2034 19.5226 19.8392 19.3467L3.98273 11.6918L11.2586 8.1793L33.26 18.8008C33.2632 18.8053 33.2668 18.8093 33.2701 18.8137V27.6026C33.2701 27.8547 33.3997 28.089 33.6132 28.2231C33.7318 28.2975 33.867 28.3351 34.0027 28.3351C34.1112 28.3351 34.2201 28.3109 34.321 28.2622L39.8008 25.6168C40.0539 25.4946 40.2148 25.2384 40.2148 24.9572V16.1198L46.9695 12.8589V37.8484L25.7324 48.1007Z" fill="black"/>
<path d="M9.07479 35.0078L5.74325 33.3995C5.3788 33.2234 4.9411 33.3764 4.76522 33.7406C4.58934 34.1049 4.74208 34.5428 5.10633 34.7187L8.43788 36.327C8.54051 36.3766 8.64901 36.4 8.75575 36.4C9.02801 36.4 9.28954 36.2475 9.41581 35.9858C9.59178 35.6215 9.43905 35.1837 9.07479 35.0078Z" fill="black"/>
<path d="M12.1409 33.0119L5.74783 29.9256C5.38347 29.7497 4.94568 29.9024 4.7698 30.2668C4.59402 30.6311 4.74675 31.0689 5.11101 31.2448L11.5041 34.3312C11.6067 34.3807 11.7152 34.4042 11.8219 34.4042C12.0942 34.4042 12.3557 34.2517 12.482 33.99C12.6579 33.6257 12.5052 33.1877 12.1409 33.0119Z" fill="black"/>
</svg>
