<svg width="157" height="70" viewBox="0 0 157 70" fill="none" xmlns="http://www.w3.org/2000/svg">
<g filter="url(#filter0_d)">
<path d="M27.2777 45.7386C36.976 45.7386 44.838 37.8765 44.838 28.1782C44.838 18.4799 36.976 10.6179 27.2777 10.6179C17.5793 10.6179 9.71732 18.4799 9.71732 28.1782C9.71732 37.8765 17.5793 45.7386 27.2777 45.7386Z" fill="#EFEFD2"/>
<path d="M25.2358 8.98435C25.6868 8.98435 26.0525 8.61867 26.0525 8.16759C26.0525 7.71651 25.6868 7.35083 25.2358 7.35083C24.7847 7.35083 24.419 7.71651 24.419 8.16759C24.419 8.61867 24.7847 8.98435 25.2358 8.98435Z" fill="#4C241D"/>
<path d="M16.4334 19.0152C16.2245 19.0152 16.0154 18.9353 15.8559 18.7759C15.537 18.4569 15.537 17.9395 15.8559 17.621L18.8749 14.6024C19.1938 14.2835 19.7108 14.2835 20.0298 14.6024C20.3487 14.9214 20.3487 15.4388 20.0298 15.7573L17.0108 18.7759C16.8513 18.9353 16.6422 19.0152 16.4334 19.0152Z" fill="#4C241D"/>
<path d="M19.4523 19.0152C19.2434 19.0152 19.0343 18.9353 18.8748 18.7759L15.8557 15.7573C15.5367 15.4386 15.5367 14.9214 15.8557 14.6024C16.1746 14.2835 16.6916 14.2835 17.0106 14.6024L20.0295 17.621C20.3485 17.9397 20.3485 18.4569 20.0295 18.7759C19.8703 18.9353 19.6612 19.0152 19.4523 19.0152Z" fill="#4C241D"/>
<path d="M11.3509 45.7386C12.7144 46.2839 16.1779 47.1928 20.5296 47.9346C20.412 48.2717 20.3352 48.6285 20.3352 49.0056C20.3352 50.8098 21.7978 52.2726 23.6023 52.2726C25.4067 52.2726 26.8693 50.8098 26.8693 49.0056C26.8693 48.93 26.8521 48.8594 26.847 48.7851C28.4916 48.9466 30.1733 49.0638 31.8517 49.1138C31.8011 49.3425 31.7699 49.5783 31.7699 49.8221C31.7699 51.6264 33.2325 53.0892 35.0369 53.0892C36.8413 53.0892 38.3039 51.6264 38.3039 49.8221C38.3039 49.5136 38.2476 49.2212 38.1675 48.9382C40.0244 48.7624 41.7948 48.4635 43.4077 48.0071C43.8252 49.0687 44.8537 49.8224 46.0632 49.8224C47.642 49.8224 48.9218 48.5425 48.9218 46.9637C48.9218 46.4442 48.7728 45.964 48.5306 45.5442C49.6397 44.727 50.6509 43.8098 51.5365 42.788C51.9469 43.0978 52.4519 43.2883 53.0056 43.2883C54.3588 43.2883 55.4559 42.1912 55.4559 40.838C55.4559 39.9381 54.9652 39.1598 54.2422 38.7338C54.9765 37.2886 55.5435 35.7524 55.9515 34.1636C56.1787 34.251 56.4231 34.3039 56.681 34.3039C57.8088 34.3039 58.7229 33.3898 58.7229 32.262C58.7229 31.1343 57.8088 30.2201 56.681 30.2201C56.6635 30.2201 56.6473 30.2248 56.63 30.2252C56.7466 28.8672 56.7386 27.4962 56.63 26.131C56.6473 26.1314 56.6637 26.1361 56.6812 26.1361C57.809 26.1361 58.7231 25.222 58.7231 24.0942C58.7231 22.9665 57.809 22.0523 56.6812 22.0523C56.4374 22.0523 56.2069 22.1023 55.9901 22.1805C55.9457 22.0021 55.9129 21.8212 55.8645 21.6439C55.5476 20.4823 55.0228 19.3909 54.3388 18.3869C55.0099 17.9501 55.4559 17.1961 55.4559 16.3352C55.4559 14.982 54.3588 13.8849 53.0056 13.8849C52.1497 13.8849 51.3982 14.3254 50.96 14.9904C49.8076 14.1683 48.5249 13.4886 47.1635 12.9867C47.2375 12.7531 47.2883 12.5093 47.2883 12.2514C47.2883 10.8982 46.1912 9.80112 44.838 9.80112C43.5698 9.80112 42.539 10.7682 42.4129 12.0029C40.9988 11.9292 39.5773 12.0521 38.199 12.3968C37.9056 11.3722 36.9724 10.6179 35.8537 10.6179C34.5005 10.6179 33.4034 11.715 33.4034 13.0682C33.4034 13.5719 33.5561 14.0393 33.8167 14.4287C32.9368 15.0657 32.1096 15.8292 31.3615 16.7436C24.0106 25.7279 35.8537 31.0369 35.8537 31.0369C30.9531 22.8693 39.1207 19.6022 43.2045 22.0525C47.2883 24.5028 48.9218 31.0369 41.571 35.9374C34.2201 40.838 16.2514 34.3039 16.2514 34.3039" fill="#F4AEAB"/>
<path d="M14.3016 38.1872C14.3016 38.1872 36.6704 48.1888 46.4715 36.7542C56.2726 25.3196 44.4019 16.4696 37.6775 21.7113L37.6763 21.7083C39.4754 21.0142 41.6396 21.1137 43.2045 22.0525C47.2883 24.5028 48.9218 31.0369 41.571 35.9374C34.2201 40.838 16.2514 34.3039 16.2514 34.3039" fill="#6B4F5B"/>
<path d="M35.0369 53.9061C32.8108 53.9061 30.9945 52.1152 30.9539 49.8985C29.8827 49.8517 28.7709 49.7784 27.6311 49.6784C27.3087 51.611 25.625 53.0894 23.6023 53.0894C21.3506 53.0894 19.5185 51.2572 19.5185 49.0056C19.5185 48.8675 19.5264 48.7295 19.5415 48.5909C15.4753 47.8586 12.3238 47.0076 11.0476 46.4971C10.6288 46.3293 10.4247 45.8543 10.5923 45.4351C10.7599 45.0159 11.2392 44.8142 11.6539 44.98C12.9405 45.4947 16.3096 46.387 20.667 47.1295C20.9039 47.1697 21.1113 47.3128 21.2332 47.5199C21.3553 47.7273 21.3801 47.9777 21.3002 48.2047C21.2006 48.4904 21.152 48.7524 21.152 49.0056C21.152 50.3567 22.2511 51.4559 23.6023 51.4559C24.9534 51.4559 26.0525 50.3567 26.0525 49.0056C26.0413 48.9398 26.035 48.8892 26.0317 48.8377C26.0166 48.5984 26.1066 48.3648 26.279 48.198C26.4513 48.0312 26.689 47.9479 26.9267 47.9724C28.6502 48.1414 30.3158 48.2511 31.8766 48.2979C32.1198 48.305 32.3473 48.4208 32.4972 48.6129C32.6462 48.8055 32.7022 49.0544 32.6487 49.2921C32.6074 49.4805 32.5866 49.6541 32.5866 49.8223C32.5866 51.1735 33.6858 52.2726 35.0369 52.2726C36.388 52.2726 37.4872 51.1735 37.4872 49.8223C37.4872 49.6265 37.4537 49.416 37.381 49.1604C37.3157 48.927 37.3571 48.677 37.4935 48.4767C37.6307 48.2768 37.8492 48.1482 38.0901 48.1253C39.9852 47.9458 41.6994 47.6416 43.1853 47.2212C43.5929 47.1087 44.0147 47.3186 44.1679 47.7086C44.4774 48.4961 45.2215 49.0056 46.0629 49.0056C47.1893 49.0056 48.1048 48.0896 48.1048 46.9637C48.1048 46.6172 48.0099 46.2766 47.8233 45.9519C47.6158 45.5917 47.7116 45.1335 48.0458 44.8871C49.1321 44.0862 50.0981 43.2001 50.9188 42.2534C51.1995 41.9288 51.6845 41.8773 52.0275 42.1358C52.3195 42.3555 52.6577 42.4717 53.0054 42.4717C53.9059 42.4717 54.6389 41.7391 54.6389 40.8382C54.6389 40.2607 54.3359 39.737 53.8269 39.4381C53.4552 39.2192 53.318 38.7489 53.5134 38.364C54.205 37.0033 54.7594 35.5217 55.1604 33.9604C55.2186 33.7348 55.3701 33.5445 55.5776 33.4375C55.7859 33.3307 56.029 33.3175 56.2453 33.4016C57.099 33.7316 57.9062 33.0788 57.9062 32.262C57.9062 31.598 57.3749 31.0556 56.7153 31.0373C56.6835 31.0401 56.6571 31.0414 56.63 31.042C56.405 31.042 56.1889 30.9491 56.035 30.7843C55.8755 30.6152 55.7965 30.3867 55.8165 30.1554C55.9241 28.8935 55.9241 27.5611 55.8157 26.1955C55.7973 25.9654 55.8779 25.7381 56.0366 25.5699C56.1944 25.4024 56.4139 25.2946 56.6484 25.3146C56.6667 25.315 56.6914 25.3167 56.7161 25.3189C57.3757 25.3001 57.9062 24.7578 57.9062 24.0942C57.9062 23.4185 57.3567 22.8691 56.681 22.8691C56.551 22.8691 56.4154 22.895 56.268 22.9489C56.0503 23.0267 55.8085 23.0104 55.6043 22.9011C55.4001 22.7919 55.2517 22.6008 55.1968 22.3755L55.1416 22.135C55.1216 22.0429 55.1018 21.9512 55.0771 21.8606C54.7931 20.82 54.3177 19.8066 53.6637 18.8471C53.5402 18.6656 53.4946 18.442 53.5377 18.2266C53.5808 18.0112 53.7092 17.8223 53.8926 17.7026C54.36 17.3984 54.6391 16.8871 54.6391 16.3352C54.6391 15.4343 53.9061 14.7017 53.0056 14.7017C52.4561 14.7017 51.9471 14.9777 51.6424 15.4394C51.5203 15.6248 51.3282 15.7524 51.1105 15.7931C50.8912 15.8349 50.667 15.7843 50.4859 15.655C49.3829 14.8679 48.1696 14.2277 46.8815 13.7532C46.4732 13.6025 46.2539 13.1578 46.3845 12.7418C46.4436 12.5534 46.4715 12.3974 46.4715 12.2514C46.4715 11.3505 45.7385 10.6179 44.838 10.6179C44.0045 10.6179 43.3107 11.2492 43.2253 12.0862C43.1806 12.5189 42.7969 12.8439 42.3702 12.8184C40.9999 12.7482 39.6663 12.8723 38.3964 13.1888C37.9689 13.2952 37.5341 13.0445 37.413 12.621C37.2136 11.9224 36.5724 11.4346 35.8537 11.4346C34.9532 11.4346 34.2201 12.1673 34.2201 13.0681C34.2201 13.3916 34.3151 13.705 34.4954 13.9745C34.7394 14.3398 34.651 14.8323 34.2959 15.09C33.4385 15.7106 32.664 16.4407 31.9941 17.2608C30.1371 19.5303 29.44 21.7231 29.9234 23.7781C30.469 26.1004 32.4055 27.8815 33.9833 28.9892C32.7518 25.3716 34.2928 23.225 35.1365 22.3815C37.2462 20.2714 41.054 19.8095 43.6247 21.3521C45.9457 22.7451 47.4269 25.2517 47.49 27.8942C47.5666 31.1181 45.626 34.2157 42.0239 36.617C34.4153 41.689 16.7219 35.344 15.9721 35.0717C15.5486 34.9173 15.3293 34.4487 15.4839 34.0248C15.6378 33.6013 16.1052 33.383 16.5303 33.5361C16.7057 33.6003 34.196 39.8711 41.1177 35.2579C44.2371 33.1784 45.9202 30.577 45.8571 27.933C45.8077 25.8451 44.6295 23.8604 42.7839 22.7529C40.8496 21.5931 37.8762 21.9516 36.2912 23.537C34.6849 25.1429 34.7782 27.6575 36.5536 30.6166C36.737 30.9225 36.7012 31.3121 36.4642 31.579C36.2265 31.8467 35.8428 31.9267 35.519 31.7824C35.2733 31.6719 29.4833 29.0266 28.3339 24.1591C27.7255 21.5812 28.531 18.9125 30.7285 16.2264C31.3419 15.4774 32.031 14.7942 32.7839 14.1887C32.6544 13.8318 32.5866 13.4539 32.5866 13.0681C32.5866 11.2668 34.0519 9.8011 35.8537 9.8011C37.0333 9.8011 38.1085 10.4521 38.6805 11.4518C39.6838 11.2527 40.7336 11.1598 41.7672 11.1663C42.2154 9.88176 43.4262 8.98434 44.838 8.98434C46.6398 8.98434 48.105 10.45 48.105 12.2514C48.105 12.3251 48.1018 12.3998 48.0963 12.4752C49.0494 12.8709 49.962 13.3505 50.821 13.9082C51.4135 13.3724 52.1872 13.0681 53.0056 13.0681C54.8074 13.0681 56.2726 14.5338 56.2726 16.3352C56.2726 17.1654 55.9592 17.9491 55.4089 18.5445C55.929 19.4103 56.3278 20.3128 56.5981 21.237C58.2012 21.1888 59.5397 22.4901 59.5397 24.0944C59.5397 25.3881 58.676 26.484 57.4945 26.835C57.5423 27.7547 57.5423 28.6585 57.4962 29.5363C58.695 29.8967 59.5397 30.9825 59.5397 32.262C59.5397 33.8859 58.1685 35.216 56.5375 35.1166C56.1953 36.2923 55.771 37.4225 55.2693 38.4912C55.9074 39.0987 56.2726 39.9342 56.2726 40.838C56.2726 42.6393 54.8074 44.105 53.0056 44.105C52.5525 44.105 52.1106 44.0101 51.6992 43.8271C51.0482 44.5222 50.3264 45.1831 49.5425 45.8C49.6732 46.1767 49.7386 46.5661 49.7386 46.9637C49.7386 48.9905 48.0899 50.6391 46.0631 50.6391C44.7966 50.6391 43.6527 50.001 42.9852 48.9658C41.8056 49.2629 40.5094 49.4954 39.1168 49.6592C39.1193 49.7139 39.1209 49.768 39.1209 49.8223C39.1207 52.0739 37.2885 53.9061 35.0369 53.9061Z" fill="#4C241D"/>
<path d="M32.3114 43.1092C30.5566 43.1092 28.6997 42.9624 26.7472 42.6665C19.9779 41.6409 14.515 39.2359 14.2861 39.1338C13.8736 38.9509 13.6886 38.4682 13.8714 38.0563C14.0556 37.6443 14.5383 37.4593 14.9497 37.6412C15.1643 37.7365 36.5628 47.0595 45.8518 36.2227C50.7165 30.5472 49.8495 25.801 47.4159 23.2519C45.2679 21.0022 41.3006 19.923 38.1804 22.3557C37.8239 22.6332 37.311 22.5691 37.0335 22.2138C36.7568 21.8581 36.8197 21.3448 37.1754 21.0677C40.5805 18.4141 45.4906 18.869 48.5974 22.1242C51.5246 25.1899 52.6661 30.7831 47.0915 37.2861C43.7924 41.1355 38.7419 43.1092 32.3114 43.1092Z" fill="#4C241D"/>
<path d="M20.3352 49.8224C19.8838 49.8224 19.5185 49.4567 19.5185 49.0056C19.5185 46.754 21.3507 44.9218 23.6023 44.9218C24.0537 44.9218 24.419 45.2875 24.419 45.7386C24.419 46.1896 24.0537 46.5553 23.6023 46.5553C22.2511 46.5553 21.152 47.6545 21.152 49.0056C21.152 49.4567 20.7867 49.8224 20.3352 49.8224Z" fill="#4C241D"/>
<path d="M55.4559 41.6547C55.0044 41.6547 54.6391 41.289 54.6391 40.838C54.6391 39.9371 53.9061 39.2045 53.0056 39.2045C52.6842 39.2045 52.373 39.2974 52.1076 39.4736C51.7311 39.7205 51.2238 39.6184 50.9758 39.2422C50.7269 38.8657 50.8306 38.3593 51.2063 38.1104C51.7407 37.7574 52.3628 37.5707 53.0056 37.5707C54.8074 37.5707 56.2726 39.0364 56.2726 40.8378C56.2726 41.289 55.9073 41.6547 55.4559 41.6547Z" fill="#4C241D"/>
<path d="M35.0369 46.5553C35.488 46.5553 35.8536 46.1897 35.8536 45.7386C35.8536 45.2875 35.488 44.9218 35.0369 44.9218C34.5858 44.9218 34.2201 45.2875 34.2201 45.7386C34.2201 46.1897 34.5858 46.5553 35.0369 46.5553Z" fill="#4C241D"/>
<path d="M23.6023 49.8224C24.0534 49.8224 24.419 49.4567 24.419 49.0056C24.419 48.5545 24.0534 48.1888 23.6023 48.1888C23.1512 48.1888 22.7855 48.5545 22.7855 49.0056C22.7855 49.4567 23.1512 49.8224 23.6023 49.8224Z" fill="#4C241D"/>
<path d="M45.6548 47.3721C46.1059 47.3721 46.4715 47.0064 46.4715 46.5553C46.4715 46.1042 46.1059 45.7386 45.6548 45.7386C45.2037 45.7386 44.838 46.1042 44.838 46.5553C44.838 47.0064 45.2037 47.3721 45.6548 47.3721Z" fill="#4C241D"/>
<path d="M16.2514 44.1051C16.7025 44.1051 17.0682 43.7394 17.0682 43.2883C17.0682 42.8372 16.7025 42.4715 16.2514 42.4715C15.8003 42.4715 15.4347 42.8372 15.4347 43.2883C15.4347 43.7394 15.8003 44.1051 16.2514 44.1051Z" fill="#4C241D"/>
<path d="M44.0212 15.5184C44.4723 15.5184 44.838 15.1528 44.838 14.7017C44.838 14.2506 44.4723 13.8849 44.0212 13.8849C43.5701 13.8849 43.2045 14.2506 43.2045 14.7017C43.2045 15.1528 43.5701 15.5184 44.0212 15.5184Z" fill="#4C241D"/>
<path d="M48.9218 20.419C49.3729 20.419 49.7386 20.0533 49.7386 19.6023C49.7386 19.1512 49.3729 18.7855 48.9218 18.7855C48.4707 18.7855 48.1051 19.1512 48.1051 19.6023C48.1051 20.0533 48.4707 20.419 48.9218 20.419Z" fill="#4C241D"/>
<path d="M82.2419 39.4415C82.2419 39.546 82.2289 39.7374 82.2028 40.0158C82.1767 40.2856 82.0853 40.564 81.9287 40.8511C81.772 41.1383 81.5241 41.3906 81.1847 41.6082C80.8454 41.8344 80.3624 41.9475 79.7359 41.9475C79.1095 41.9475 78.6265 41.8344 78.2872 41.6082C77.9478 41.3906 77.6998 41.1383 77.5432 40.8511C77.3866 40.564 77.2952 40.2856 77.2691 40.0158C77.243 39.7374 77.23 39.546 77.23 39.4415V21.0644C77.23 20.9948 77.2343 20.8904 77.243 20.7512C77.2517 20.612 77.2778 20.4597 77.3213 20.2944C77.3648 20.1204 77.4388 19.9463 77.5432 19.7723C77.6476 19.5896 77.7912 19.4243 77.9739 19.2763C78.1567 19.1284 78.3916 19.0109 78.6787 18.9239C78.9659 18.8282 79.3183 18.7804 79.7359 18.7804C80.1536 18.7804 80.506 18.8282 80.7931 18.9239C81.0803 19.0109 81.3152 19.1284 81.498 19.2763C81.6807 19.4243 81.8242 19.5896 81.9287 19.7723C82.0331 19.9463 82.107 20.1204 82.1505 20.2944C82.1941 20.4597 82.2202 20.612 82.2289 20.7512C82.2376 20.8904 82.2419 20.9948 82.2419 21.0644V39.4415ZM78.9006 39.4415C78.9006 39.546 78.905 39.6721 78.9137 39.82C78.9224 39.9593 78.9528 40.0941 79.005 40.2247C79.0572 40.3552 79.1399 40.4683 79.253 40.564C79.3661 40.651 79.5271 40.6945 79.7359 40.6945C79.9448 40.6945 80.1057 40.651 80.2189 40.564C80.332 40.4683 80.4146 40.3552 80.4669 40.2247C80.5191 40.0941 80.5495 39.9593 80.5582 39.82C80.5669 39.6721 80.5713 39.546 80.5713 39.4415V21.0644C80.5713 20.96 80.5669 20.8469 80.5582 20.7251C80.5495 20.6033 80.5191 20.4945 80.4669 20.3988C80.4146 20.2944 80.332 20.2074 80.2189 20.1378C80.1057 20.0681 79.9448 20.0333 79.7359 20.0333C79.5271 20.0333 79.3661 20.0681 79.253 20.1378C79.1399 20.2074 79.0572 20.2944 79.005 20.3988C78.9528 20.4945 78.9224 20.6033 78.9137 20.7251C78.905 20.8469 78.9006 20.96 78.9006 21.0644V39.4415ZM88.9245 29.8353H87.2538V23.3616C87.2538 23.0657 87.1799 22.8569 87.032 22.7351C86.884 22.6046 86.7144 22.5393 86.5229 22.5393C86.4098 22.5393 86.2967 22.5611 86.1836 22.6046C86.0792 22.6394 85.9791 22.6959 85.8834 22.7742C85.7964 22.8439 85.7224 22.9309 85.6615 23.0353C85.6093 23.131 85.5832 23.2398 85.5832 23.3616V39.6504C85.5832 39.7722 85.6093 39.8853 85.6615 39.9897C85.7224 40.0941 85.7964 40.1855 85.8834 40.2638C85.9791 40.3334 86.0792 40.39 86.1836 40.4335C86.2967 40.4683 86.4098 40.4857 86.5229 40.4857C86.7144 40.4857 86.884 40.4204 87.032 40.2899C87.1799 40.1594 87.2538 39.9462 87.2538 39.6504V32.3413H88.9245V39.6504C88.9245 39.9984 88.8505 40.3073 88.7026 40.5771C88.5547 40.8381 88.3633 41.06 88.1283 41.2427C87.8934 41.4167 87.6237 41.5472 87.3191 41.6343C87.0146 41.73 86.7057 41.7778 86.3924 41.7778C86.0792 41.7778 85.7746 41.7343 85.4788 41.6473C85.1829 41.5603 84.9176 41.4298 84.6826 41.2558C84.4477 41.073 84.2606 40.8511 84.1214 40.5901C83.9822 40.3204 83.9126 40.0071 83.9126 39.6504V23.3616C83.9126 23.0135 83.9822 22.7046 84.1214 22.4349C84.2693 22.1652 84.4607 21.9433 84.6957 21.7692C84.9306 21.5952 85.2003 21.4647 85.5049 21.3777C85.8094 21.282 86.1183 21.2341 86.4316 21.2341C86.7448 21.2341 87.0494 21.2776 87.3452 21.3646C87.6411 21.4517 87.9064 21.5865 88.1414 21.7692C88.3763 21.9433 88.5634 22.1652 88.7026 22.4349C88.8505 22.6959 88.9245 23.0048 88.9245 23.3616V29.8353ZM94.9806 21.4821V22.7351H93.3099V41.5298H91.6393V22.7351H89.9686V21.4821H94.9806ZM101.037 39.6504C101.037 40.0158 100.967 40.3334 100.828 40.6032C100.697 40.8642 100.519 41.0817 100.293 41.2558C100.066 41.4298 99.8098 41.556 99.5226 41.6343C99.2355 41.7213 98.9397 41.7648 98.6351 41.7648C98.3132 41.7648 97.9956 41.7169 97.6823 41.6212C97.3691 41.5342 97.0906 41.4037 96.847 41.2297C96.6034 41.0469 96.4032 40.825 96.2466 40.564C96.0987 40.2943 96.0247 39.9897 96.0247 39.6504V23.3616C96.0247 23.0309 96.0987 22.7394 96.2466 22.4871C96.4032 22.2261 96.6034 22.0085 96.847 21.8345C97.0993 21.6605 97.3821 21.53 97.6954 21.4429C98.0086 21.3472 98.3262 21.2994 98.6482 21.2994C98.9527 21.2994 99.2486 21.3429 99.5357 21.4299C99.8228 21.5082 100.075 21.6344 100.293 21.8084C100.519 21.9737 100.697 22.1869 100.828 22.4479C100.967 22.709 101.037 23.0135 101.037 23.3616V39.6504ZM99.366 23.3616C99.366 23.0657 99.2921 22.8569 99.1441 22.7351C99.0049 22.6046 98.8396 22.5393 98.6482 22.5393C98.5351 22.5393 98.4219 22.5611 98.3088 22.6046C98.1957 22.6394 98.0913 22.6959 97.9956 22.7742C97.9086 22.8439 97.8346 22.9309 97.7737 23.0353C97.7215 23.131 97.6954 23.2398 97.6954 23.3616V39.6504C97.6954 39.7722 97.7215 39.8853 97.7737 39.9897C97.8346 40.0941 97.9086 40.1811 97.9956 40.2508C98.0913 40.3204 98.1914 40.3769 98.2958 40.4204C98.4089 40.4552 98.522 40.4726 98.6351 40.4726C98.8265 40.4726 98.9962 40.4117 99.1441 40.2899C99.2921 40.1594 99.366 39.9462 99.366 39.6504V23.3616ZM107.719 30.253C107.719 30.7751 107.624 31.1797 107.432 31.4668C107.241 31.7453 106.988 31.9497 106.675 32.0803C106.362 32.2108 106.005 32.2891 105.605 32.3152C105.205 32.3326 104.796 32.3413 104.378 32.3413V41.5298H102.707V21.4821H104.796C105.535 21.4821 106.101 21.5517 106.492 21.6909C106.893 21.8302 107.184 22.0042 107.367 22.213C107.55 22.4218 107.654 22.6481 107.68 22.8917C107.706 23.1353 107.719 23.3616 107.719 23.5704V30.253ZM106.049 23.5704C106.049 23.3616 106.018 23.2006 105.957 23.0875C105.905 22.9744 105.814 22.8917 105.683 22.8395C105.553 22.7873 105.379 22.7568 105.161 22.7481C104.952 22.7394 104.691 22.7351 104.378 22.7351V31.0883C104.587 31.0883 104.791 31.084 104.991 31.0753C105.192 31.0579 105.37 31.01 105.527 30.9317C105.683 30.8534 105.809 30.7316 105.905 30.5662C106.001 30.3922 106.049 30.1486 106.049 29.8353V23.5704ZM111.896 21.4821H113.567V39.6504C113.567 40.0158 113.501 40.3334 113.371 40.6032C113.24 40.8642 113.066 41.0817 112.849 41.2558C112.631 41.4211 112.383 41.5429 112.105 41.6212C111.835 41.6995 111.557 41.7387 111.269 41.7387C110.982 41.7387 110.699 41.6995 110.421 41.6212C110.151 41.5429 109.908 41.4211 109.69 41.2558C109.473 41.0817 109.299 40.8642 109.168 40.6032C109.037 40.3334 108.972 40.0158 108.972 39.6504V21.4821H110.643V39.6504C110.643 39.9636 110.708 40.1811 110.839 40.303C110.969 40.4248 111.113 40.4857 111.269 40.4857C111.426 40.4857 111.57 40.4248 111.7 40.303C111.831 40.1811 111.896 39.9636 111.896 39.6504V21.4821ZM119.831 28.5823H118.161V23.3616C118.161 23.0483 118.096 22.8308 117.965 22.709C117.834 22.5872 117.691 22.5263 117.534 22.5263C117.378 22.5263 117.234 22.5872 117.104 22.709C116.973 22.8308 116.908 23.0483 116.908 23.3616C116.908 24.2926 116.951 25.1497 117.038 25.9328C117.125 26.7159 117.238 27.4381 117.378 28.0994C117.517 28.7607 117.674 29.3655 117.848 29.9136C118.022 30.4531 118.196 30.9491 118.37 31.4016C118.509 31.7583 118.661 32.1716 118.826 32.6415C119 33.1114 119.161 33.6726 119.309 34.3252C119.457 34.9778 119.579 35.7391 119.675 36.6093C119.779 37.4794 119.831 38.4931 119.831 39.6504C119.831 40.0158 119.766 40.3334 119.636 40.6032C119.505 40.8642 119.331 41.0817 119.114 41.2558C118.896 41.4211 118.648 41.5429 118.37 41.6212C118.1 41.6995 117.821 41.7387 117.534 41.7387C117.247 41.7387 116.964 41.6995 116.686 41.6212C116.416 41.5429 116.173 41.4211 115.955 41.2558C115.737 41.0817 115.563 40.8642 115.433 40.6032C115.302 40.3334 115.237 40.0158 115.237 39.6504V34.4296H116.908V39.6504C116.908 39.9636 116.973 40.1811 117.104 40.303C117.234 40.4248 117.378 40.4857 117.534 40.4857C117.691 40.4857 117.834 40.4248 117.965 40.303C118.096 40.1811 118.161 39.9636 118.161 39.6504C118.161 38.5279 118.104 37.5447 117.991 36.7006C117.887 35.8479 117.752 35.0996 117.586 34.4557C117.421 33.8031 117.238 33.2332 117.038 32.7459C116.847 32.2586 116.669 31.8105 116.503 31.4016C116.338 31.0013 116.177 30.5445 116.02 30.0311C115.872 29.5177 115.737 28.9347 115.616 28.2822C115.503 27.6296 115.411 26.8986 115.342 26.0894C115.272 25.2715 115.237 24.3622 115.237 23.3616C115.237 22.9961 115.302 22.6829 115.433 22.4218C115.563 22.1608 115.737 21.9476 115.955 21.7823C116.173 21.6083 116.416 21.4821 116.686 21.4038C116.964 21.3168 117.247 21.2733 117.534 21.2733C117.821 21.2733 118.1 21.3168 118.37 21.4038C118.648 21.4821 118.896 21.6083 119.114 21.7823C119.331 21.9476 119.505 22.1608 119.636 22.4218C119.766 22.6829 119.831 22.9961 119.831 23.3616V28.5823ZM129.203 18.9761V20.2291H127.532V41.5298H125.861V20.2291H124.191V18.9761H129.203ZM135.468 39.6504C135.468 40.0158 135.398 40.3334 135.259 40.6032C135.128 40.8642 134.95 41.0817 134.724 41.2558C134.497 41.4298 134.241 41.556 133.954 41.6343C133.666 41.7213 133.371 41.7648 133.066 41.7648C132.744 41.7648 132.427 41.7169 132.113 41.6212C131.8 41.5342 131.522 41.4037 131.278 41.2297C131.034 41.0469 130.834 40.825 130.678 40.564C130.53 40.2943 130.456 39.9897 130.456 39.6504V23.3616C130.456 23.0309 130.53 22.7394 130.678 22.4871C130.834 22.2261 131.034 22.0085 131.278 21.8345C131.53 21.6605 131.813 21.53 132.126 21.4429C132.44 21.3472 132.757 21.2994 133.079 21.2994C133.384 21.2994 133.68 21.3429 133.967 21.4299C134.254 21.5082 134.506 21.6344 134.724 21.8084C134.95 21.9737 135.128 22.1869 135.259 22.4479C135.398 22.709 135.468 23.0135 135.468 23.3616V39.6504ZM133.797 23.3616C133.797 23.0657 133.723 22.8569 133.575 22.7351C133.436 22.6046 133.271 22.5393 133.079 22.5393C132.966 22.5393 132.853 22.5611 132.74 22.6046C132.627 22.6394 132.522 22.6959 132.427 22.7742C132.34 22.8439 132.266 22.9309 132.205 23.0353C132.152 23.131 132.126 23.2398 132.126 23.3616V39.6504C132.126 39.7722 132.152 39.8853 132.205 39.9897C132.266 40.0941 132.34 40.1811 132.427 40.2508C132.522 40.3204 132.622 40.3769 132.727 40.4204C132.84 40.4552 132.953 40.4726 133.066 40.4726C133.257 40.4726 133.427 40.4117 133.575 40.2899C133.723 40.1594 133.797 39.9462 133.797 39.6504V23.3616ZM142.15 39.6504C142.15 40.0158 142.081 40.3334 141.941 40.6032C141.811 40.8642 141.632 41.0817 141.406 41.2558C141.18 41.4298 140.923 41.556 140.636 41.6343C140.349 41.7213 140.053 41.7648 139.749 41.7648C139.427 41.7648 139.109 41.7169 138.796 41.6212C138.483 41.5342 138.204 41.4037 137.961 41.2297C137.717 41.0469 137.517 40.825 137.36 40.564C137.212 40.2943 137.138 39.9897 137.138 39.6504V23.3616C137.138 23.0309 137.212 22.7394 137.36 22.4871C137.517 22.2261 137.717 22.0085 137.961 21.8345C138.213 21.6605 138.496 21.53 138.809 21.4429C139.122 21.3472 139.44 21.2994 139.762 21.2994C140.066 21.2994 140.362 21.3429 140.649 21.4299C140.936 21.5082 141.189 21.6344 141.406 21.8084C141.632 21.9737 141.811 22.1869 141.941 22.4479C142.081 22.709 142.15 23.0135 142.15 23.3616V39.6504ZM140.48 23.3616C140.48 23.0657 140.406 22.8569 140.258 22.7351C140.118 22.6046 139.953 22.5393 139.762 22.5393C139.649 22.5393 139.535 22.5611 139.422 22.6046C139.309 22.6394 139.205 22.6959 139.109 22.7742C139.022 22.8439 138.948 22.9309 138.887 23.0353C138.835 23.131 138.809 23.2398 138.809 23.3616V39.6504C138.809 39.7722 138.835 39.8853 138.887 39.9897C138.948 40.0941 139.022 40.1811 139.109 40.2508C139.205 40.3204 139.305 40.3769 139.409 40.4204C139.522 40.4552 139.636 40.4726 139.749 40.4726C139.94 40.4726 140.11 40.4117 140.258 40.2899C140.406 40.1594 140.48 39.9462 140.48 39.6504V23.3616ZM145.491 21.4821V40.2769H147.162V41.5298H143.821V21.4821H145.491ZM152.592 28.5823H150.921V23.3616C150.921 23.0483 150.856 22.8308 150.725 22.709C150.595 22.5872 150.451 22.5263 150.295 22.5263C150.138 22.5263 149.994 22.5872 149.864 22.709C149.733 22.8308 149.668 23.0483 149.668 23.3616C149.668 24.2926 149.712 25.1497 149.799 25.9328C149.886 26.7159 149.999 27.4381 150.138 28.0994C150.277 28.7607 150.434 29.3655 150.608 29.9136C150.782 30.4531 150.956 30.9491 151.13 31.4016C151.269 31.7583 151.421 32.1716 151.587 32.6415C151.761 33.1114 151.922 33.6726 152.07 34.3252C152.218 34.9778 152.339 35.7391 152.435 36.6093C152.54 37.4794 152.592 38.4931 152.592 39.6504C152.592 40.0158 152.526 40.3334 152.396 40.6032C152.265 40.8642 152.091 41.0817 151.874 41.2558C151.656 41.4211 151.408 41.5429 151.13 41.6212C150.86 41.6995 150.582 41.7387 150.295 41.7387C150.007 41.7387 149.725 41.6995 149.446 41.6212C149.176 41.5429 148.933 41.4211 148.715 41.2558C148.498 41.0817 148.324 40.8642 148.193 40.6032C148.063 40.3334 147.997 40.0158 147.997 39.6504V34.4296H149.668V39.6504C149.668 39.9636 149.733 40.1811 149.864 40.303C149.994 40.4248 150.138 40.4857 150.295 40.4857C150.451 40.4857 150.595 40.4248 150.725 40.303C150.856 40.1811 150.921 39.9636 150.921 39.6504C150.921 38.5279 150.865 37.5447 150.751 36.7006C150.647 35.8479 150.512 35.0996 150.347 34.4557C150.181 33.8031 149.999 33.2332 149.799 32.7459C149.607 32.2586 149.429 31.8105 149.263 31.4016C149.098 31.0013 148.937 30.5445 148.781 30.0311C148.633 29.5177 148.498 28.9347 148.376 28.2822C148.263 27.6296 148.171 26.8986 148.102 26.0894C148.032 25.2715 147.997 24.3622 147.997 23.3616C147.997 22.9961 148.063 22.6829 148.193 22.4218C148.324 22.1608 148.498 21.9476 148.715 21.7823C148.933 21.6083 149.176 21.4821 149.446 21.4038C149.725 21.3168 150.007 21.2733 150.295 21.2733C150.582 21.2733 150.86 21.3168 151.13 21.4038C151.408 21.4821 151.656 21.6083 151.874 21.7823C152.091 21.9476 152.265 22.1608 152.396 22.4218C152.526 22.6829 152.592 22.9961 152.592 23.3616V28.5823Z" fill="black"/>
</g>
<defs>
<filter id="filter0_d" x="0" y="0" width="156.592" height="69.257" filterUnits="userSpaceOnUse" color-interpolation-filters="sRGB">
<feFlood flood-opacity="0" result="BackgroundImageFix"/>
<feColorMatrix in="SourceAlpha" type="matrix" values="0 0 0 0 0 0 0 0 0 0 0 0 0 0 0 0 0 0 127 0"/>
<feOffset dy="4"/>
<feGaussianBlur stdDeviation="2"/>
<feColorMatrix type="matrix" values="0 0 0 0 0 0 0 0 0 0 0 0 0 0 0 0 0 0 0.25 0"/>
<feBlend mode="normal" in2="BackgroundImageFix" result="effect1_dropShadow"/>
<feBlend mode="normal" in="SourceGraphic" in2="effect1_dropShadow" result="shape"/>
</filter>
</defs>
</svg>
