<svg width="50" height="50" viewBox="0 0 50 50" fill="none" xmlns="http://www.w3.org/2000/svg">
<path d="M35.8333 26.25V40.4167C35.8333 43.1781 33.5948 45.4167 30.8333 45.4167H10.8333C11.7527 45.4139 12.4972 44.6693 12.5 43.75V41.4667C12.501 40.8493 12.1569 40.2832 11.6083 40C8.64422 38.3711 6.21134 35.9237 4.6 32.95C4.30827 32.4168 3.74943 32.0847 3.14166 32.0833H2.49999C1.58066 32.0861 0.836074 32.8307 0.833328 33.75V26.25C0.833328 16.585 8.66835 8.75 18.3333 8.75C18.6167 8.75 18.8917 8.75833 19.1667 8.775C23.5158 8.97381 27.6331 10.7931 30.7083 13.875C33.9973 17.1523 35.8421 21.6069 35.8333 26.25Z" fill="#F44335"/>
<path d="M0.833328 32.1092V33.75C0.834319 33.1994 1.10722 32.6847 1.56249 32.375C1.3443 32.2292 1.0942 32.138 0.833328 32.1092Z" fill="#C81E1E"/>
<path d="M32.5833 16.0833C32.02 15.297 31.3929 14.5584 30.7083 13.875C27.6331 10.7931 23.5158 8.97381 19.1667 8.775C18.8917 8.75833 18.6167 8.75 18.3333 8.75C17.9092 8.75 17.4933 8.78417 17.0758 8.81333C21.2763 9.10015 25.2309 10.8982 28.2083 13.875C31.4973 17.1523 33.3421 21.6069 33.3333 26.25V40.4167C33.3333 43.1781 31.0948 45.4167 28.3333 45.4167H30.8333C33.5948 45.4167 35.8333 43.1781 35.8333 40.4167V26.25C35.8372 22.605 34.7008 19.0502 32.5833 16.0833Z" fill="#C81E1E"/>
<path d="M12.5 41.4667V43.75C12.4972 44.6693 11.7527 45.4139 10.8333 45.4167H4.99999C3.89492 45.4167 2.83512 44.9777 2.05372 44.1963C1.27231 43.4149 0.833328 42.3551 0.833328 41.25V33.75C0.836074 32.8307 1.58066 32.0861 2.49999 32.0833H3.14166C3.74943 32.0847 4.30826 32.4168 4.59999 32.95C6.21134 35.9237 8.64421 38.3711 11.6083 40C12.1569 40.2832 12.501 40.8493 12.5 41.4667Z" fill="#607D8B"/>
<path d="M11.6083 40C8.64422 38.3711 6.21135 35.9237 4.6 32.95C4.30827 32.4168 3.74944 32.0847 3.14167 32.0833H2.5C2.16521 32.0836 1.83835 32.1853 1.5625 32.375C1.78547 32.5205 1.9699 32.7178 2.1 32.95C3.71135 35.9237 6.14422 38.3711 9.10833 40C9.65687 40.2832 10.001 40.8493 10 41.4667V43.75C9.99726 44.6693 9.25267 45.4139 8.33333 45.4167H10.8333C11.7527 45.4139 12.4973 44.6693 12.5 43.75V41.4667C12.501 40.8493 12.1569 40.2832 11.6083 40Z" fill="#37474F"/>
<path d="M35.8333 32.0833H45V40.4167H35.8333V32.0833Z" fill="#FFDC00"/>
<path d="M42.5 32.0833H45V40.4167H42.5V32.0833Z" fill="#FEC108"/>
<path d="M49.1667 33.75V43.75C49.1639 44.6693 48.4194 45.4139 47.5 45.4167H46.6667C45.7473 45.4139 45.0028 44.6693 45 43.75V32.0833H47.5C48.4194 32.0861 49.1639 32.8307 49.1667 33.75Z" fill="#9E9E9E"/>
<path d="M33.0583 10.1667L32.5833 16.0833C32.02 15.297 31.3929 14.5584 30.7083 13.875C27.6331 10.7931 23.5158 8.9738 19.1667 8.77499L23 5.04999C23.4184 4.63747 24.0248 4.47874 24.5917 4.63332C27.4669 5.4618 30.1453 6.86197 32.4667 8.74999C32.8826 9.09786 33.1033 9.62631 33.0583 10.1667Z" fill="#7F8E94"/>
<path d="M32.4667 8.75C30.1453 6.86197 27.4669 5.4618 24.5917 4.63333C24.078 4.49664 23.5299 4.61782 23.1217 4.95833C25.6096 5.80744 27.9272 7.09123 29.9667 8.75C30.3826 9.09786 30.6033 9.62631 30.5583 10.1667L30.2908 13.4942C30.4283 13.6225 30.575 13.7442 30.7075 13.875C31.3924 14.5584 32.0198 15.297 32.5833 16.0833L33.0583 10.1667C33.1033 9.62631 32.8826 9.09786 32.4667 8.75Z" fill="#545C60"/>
<path d="M30 42.0833C31.3807 42.0833 32.5 40.9641 32.5 39.5833C32.5 38.2026 31.3807 37.0833 30 37.0833C28.6193 37.0833 27.5 38.2026 27.5 39.5833C27.5 40.9641 28.6193 42.0833 30 42.0833Z" fill="#FF9801"/>
<path d="M18.3333 35.4167C22.9357 35.4167 26.6667 31.6857 26.6667 27.0833C26.6667 22.481 22.9357 18.75 18.3333 18.75C13.731 18.75 10 22.481 10 27.0833C10 31.6857 13.731 35.4167 18.3333 35.4167Z" fill="#FF9801"/>
<path d="M18.3333 18.75C17.9146 18.7533 17.4968 18.7881 17.0833 18.8542C21.1557 19.4665 24.1677 22.9652 24.1677 27.0833C24.1677 31.2014 21.1557 34.7002 17.0833 35.3125C20.1754 35.7856 23.2718 34.4864 25.1006 31.9487C26.9293 29.4109 27.1821 26.0625 25.7549 23.279C24.3278 20.4955 21.4614 18.7463 18.3333 18.75Z" fill="#F57C00"/>
<path d="M4.16667 27.0833C3.70643 27.0833 3.33333 26.7102 3.33333 26.25C3.32497 19.364 8.0127 13.3594 14.695 11.6967C14.9866 11.6167 15.2986 11.7009 15.5103 11.9168C15.722 12.1326 15.8002 12.4461 15.7147 12.7361C15.6291 13.0261 15.3933 13.247 15.0983 13.3133C9.15893 14.792 4.99262 20.1293 5 26.25C5 26.7102 4.6269 27.0833 4.16667 27.0833Z" fill="#F5F5F5"/>
<path d="M18.3333 12.9167C18.7936 12.9167 19.1667 12.5436 19.1667 12.0833C19.1667 11.6231 18.7936 11.25 18.3333 11.25C17.8731 11.25 17.5 11.6231 17.5 12.0833C17.5 12.5436 17.8731 12.9167 18.3333 12.9167Z" fill="#F5F5F5"/>
<path d="M47.5 31.25H36.6667V26.25C36.6735 22.5408 35.5465 18.9182 33.4367 15.8675L33.8892 10.23C33.9547 9.41716 33.6198 8.62342 32.9917 8.10333C30.5827 6.14253 27.8015 4.69 24.8158 3.83333C23.963 3.59827 23.0495 3.83513 22.4183 4.455L18.8283 7.94083C18.6667 7.93667 18.5 7.91667 18.3333 7.91667C8.21287 7.92815 0.011481 16.1295 0 26.25V41.25C0.00275615 44.0103 2.23972 46.2473 5 46.25H30.8333C33.7305 46.2466 36.1861 44.1175 36.6 41.25H44.1667V43.75C44.1667 45.1307 45.2859 46.25 46.6667 46.25H47.5C48.8807 46.25 50 45.1307 50 43.75V33.75C50 32.3693 48.8807 31.25 47.5 31.25ZM23.5833 5.645C23.7857 5.44061 24.082 5.36017 24.36 5.43417C27.1273 6.22962 29.7051 7.57663 31.9383 9.39417C32.1431 9.56893 32.2508 9.83183 32.2275 10.1L31.9167 13.9683C31.71 13.7408 31.5158 13.5042 31.2975 13.2858C28.5198 10.5023 24.9146 8.69445 21.0225 8.13333L23.5833 5.645ZM10 44.5833H5C3.15905 44.5833 1.66667 43.091 1.66667 41.25V33.75C1.66667 33.2898 2.03976 32.9167 2.5 32.9167H3.14083C3.44532 32.9168 3.72551 33.0829 3.87167 33.35C5.5519 36.4778 8.10987 39.0462 11.2308 40.7392C11.4997 40.8826 11.6674 41.1628 11.6667 41.4675V43.75C11.6667 44.2102 11.2936 44.5833 10.8333 44.5833H10ZM30.8333 44.5833H13.18C13.2787 44.3165 13.3306 44.0345 13.3333 43.75V41.4675C13.3379 40.5374 12.8201 39.6835 11.9933 39.2575C9.17816 37.7034 6.86702 35.3755 5.33333 32.5492C4.89466 31.7482 4.0541 31.2501 3.14083 31.25H2.5C2.21547 31.2528 1.93355 31.3046 1.66667 31.4033V26.25C1.66667 17.0453 9.12858 9.58333 18.3333 9.58333C27.5381 9.58333 35 17.0453 35 26.25V40.4167C34.9972 42.7167 33.1334 44.5806 30.8333 44.5833ZM36.6667 39.5833V32.9167H39.1667V34.5833C39.1667 35.0436 39.5398 35.4167 40 35.4167C40.4602 35.4167 40.8333 35.0436 40.8333 34.5833V32.9167H44.1667V39.5833H36.6667ZM48.3333 43.75C48.3333 44.2102 47.9602 44.5833 47.5 44.5833H46.6667C46.2064 44.5833 45.8333 44.2102 45.8333 43.75V32.9167H47.5C47.9602 32.9167 48.3333 33.2898 48.3333 33.75V43.75Z" fill="black"/>
<path d="M30 36.25C28.1591 36.25 26.6667 37.7424 26.6667 39.5833C26.6667 41.4243 28.1591 42.9167 30 42.9167C31.8409 42.9167 33.3333 41.4243 33.3333 39.5833C33.3333 37.7424 31.8409 36.25 30 36.25ZM30 41.25C29.0795 41.25 28.3333 40.5038 28.3333 39.5833C28.3333 38.6628 29.0795 37.9167 30 37.9167C30.9205 37.9167 31.6667 38.6628 31.6667 39.5833C31.6667 40.5038 30.9205 41.25 30 41.25Z" fill="black"/>
<path d="M18.3333 17.9167C13.2707 17.9167 9.16666 22.0207 9.16666 27.0833C9.16666 32.1459 13.2707 36.25 18.3333 36.25C23.396 36.25 27.5 32.1459 27.5 27.0833C27.494 22.0232 23.3935 17.9226 18.3333 17.9167ZM18.3333 34.5833C14.1912 34.5833 10.8333 31.2255 10.8333 27.0833C10.8333 22.9412 14.1912 19.5833 18.3333 19.5833C22.4755 19.5833 25.8333 22.9412 25.8333 27.0833C25.8288 31.2236 22.4736 34.5787 18.3333 34.5833Z" fill="black"/>
</svg>
